<svg xmlns="http://www.w3.org/2000/svg" width="61" height="9" fill="none"><path d="M39.714.675c.994 0 1.861.371 2.6 1.107s1.121 1.645 1.128 2.737a3.8 3.8 0 0 1-1.091 2.691c-.725.766-1.607 1.152-2.638 1.152h-1.98a.78.78 0 0 1-.561-.235.795.795 0 0 1-.239-.584v-6.05a.83.83 0 0 1 .232-.569.737.737 0 0 1 .568-.25h1.98zM38.526 2.32v4.412h1.196a2.1 2.1 0 0 0 1.532-.614c.434-.417.65-.948.65-1.6-.022-.622-.239-1.152-.658-1.577a1.97 1.97 0 0 0-1.524-.622h-1.196zm6.045 6.057a.713.713 0 0 1-.53-.212c-.142-.136-.217-.326-.232-.561V5.383a2.83 2.83 0 0 1 .852-1.979 2.89 2.89 0 0 1 .889-.599 3.058 3.058 0 0 1 1.084-.25.72.72 0 0 1 .545.227.87.87 0 0 1 .239.553c0 .22-.075.402-.224.546a.774.774 0 0 1-.553.235 1.2 1.2 0 0 0-.501.099 1.275 1.275 0 0 0-.411.281 1.5 1.5 0 0 0-.284.425 1.41 1.41 0 0 0-.105.538V7.65a.765.765 0 0 1-.232.515c-.127.144-.314.212-.538.212zm4.08-7.634c.202 0 .374.076.523.235a.8.8 0 0 1 .217.546.788.788 0 0 1-.217.546.678.678 0 0 1-.523.235.845.845 0 0 1-.56-.22c-.142-.136-.217-.341-.217-.591a.76.76 0 0 1 .239-.531.777.777 0 0 1 .538-.22zm0 1.842c.202 0 .374.076.508.227s.217.334.232.553v4.253a.75.75 0 0 1-.202.538.78.78 0 0 1-.538.243c-.202 0-.374-.061-.516-.19s-.224-.311-.254-.538V3.313a.75.75 0 0 1 .247-.516.774.774 0 0 1 .523-.212zm5.455 0a.795.795 0 0 1 .433.425c.09.197.09.402 0 .606l-1.584 4.245a.956.956 0 0 1-.254.318.66.66 0 0 1-.463.19.94.94 0 0 1-.448-.114c-.142-.076-.239-.205-.306-.394l-1.592-4.245a.714.714 0 0 1 0-.606.8.8 0 0 1 .433-.425.718.718 0 0 1 .598.015.79.79 0 0 1 .418.447l.867 2.305.867-2.305a.854.854 0 0 1 .426-.447.732.732 0 0 1 .605-.015zm3.318-.038c.374 0 .732.083 1.076.243s.65.371.912.644c.262.265.471.576.628.925a2.64 2.64 0 0 1 .232 1.099.59.59 0 0 1-.232.493c-.15.121-.344.174-.568.167h-3.116c.254.455.613.682 1.069.682.127 0 .232-.015.314-.038a1.79 1.79 0 0 0 .232-.083l.202-.083a.7.7 0 0 1 .232-.038.744.744 0 0 1 .426.144.83.83 0 0 1 .269.334c.06.129.075.273.06.425a.78.78 0 0 1-.202.417 1.84 1.84 0 0 1-.702.364 3.53 3.53 0 0 1-.822.114 2.3 2.3 0 0 1-1.076-.212 3.1 3.1 0 0 1-.912-.637 2.97 2.97 0 0 1-.62-.94 2.92 2.92 0 0 1-.232-1.114 2.63 2.63 0 0 1 .232-1.092 3.14 3.14 0 0 1 .613-.932 2.99 2.99 0 0 1 .904-.644 2.63 2.63 0 0 1 1.084-.235zm1.069 2.236c-.134-.25-.291-.425-.471-.523a1.23 1.23 0 0 0-.598-.152 1.23 1.23 0 0 0-.605.152c-.179.099-.329.273-.463.523h2.137zM30.964 2.616h3.564a.53.53 0 0 1 .523.538.53.53 0 0 1-.523.538h-3.564a.53.53 0 0 1-.523-.538c0-.303.232-.538.523-.538zm1.651 3.427h1.913a.53.53 0 0 1 .523.538.53.53 0 0 1-.523.538h-1.913a.53.53 0 0 1-.523-.538.53.53 0 0 1 .523-.538zm-2.72-1.713h4.633a.53.53 0 0 1 .523.538.53.53 0 0 1-.523.538h-4.633a.53.53 0 0 1-.523-.538c0-.296.239-.538.523-.538z" fill-rule="evenodd" fill="#7c47e1"/><path d="M23.398.25 5.254.288C2.897.295.993 2.23.993 4.615 1 7 2.86 8.883 5.217 8.875l18.144-.037c2.357-.008 4.314-1.89 4.306-4.275.007-2.385-1.912-4.32-4.269-4.312z" fill="#7c47e1"/><path d="M23.25 7.78c-1.757 0-3.187-1.44-3.187-3.21 0-1.777 1.423-3.225 3.172-3.225 1.757 0 3.187 1.44 3.187 3.21S25.007 7.772 23.25 7.78z" fill="#fff"/><path d="M25.353 5.051c.27-1.182-.458-2.363-1.626-2.636s-2.335.463-2.605 1.646.458 2.363 1.627 2.636 2.335-.463 2.605-1.646z" fill="#37c87e"/><path d="M8.604 4.585c0-1.77-1.43-3.21-3.187-3.21-1.749 0-3.172 1.447-3.172 3.225s1.43 3.21 3.187 3.21c.83 0 1.586-.33 2.157-.862v.338c0 .285.23.518.511.518s.511-.232.511-.518L8.604 4.69v-.105zm-3.172 2.19c-1.186 0-2.157-.975-2.164-2.175 0-1.2.964-2.182 2.149-2.19 1.186 0 2.157.975 2.164 2.175.007 1.208-.964 2.19-2.149 2.19zm7.049 1.02c-1.764 0-3.202-1.448-3.209-3.233 0-1.785 1.43-3.24 3.194-3.247.793 0 1.549.293 2.142.825.207.195.23.517.037.735s-.511.232-.726.038a2.18 2.18 0 0 0-1.453-.562c-1.201 0-2.172.99-2.172 2.205a2.19 2.19 0 0 0 2.179 2.198c.541 0 1.053-.202 1.453-.57a.51.51 0 0 1 .726.038c.192.21.17.54-.037.735a3.12 3.12 0 0 1-2.135.84zm7.627-.953L17.35 4.51l2.75-2.295a.524.524 0 0 0 .067-.727.51.51 0 0 0-.719-.068l-2.98 2.505v-2.1c0-.285-.23-.518-.511-.518s-.511.233-.511.518l.007 5.423c0 .285.23.518.511.518s.511-.232.511-.518l-.007-2.107 2.987 2.497a.49.49 0 0 0 .326.12.52.52 0 0 0 .393-.187.51.51 0 0 0-.067-.727z" fill="#fff"/></svg>