<svg width="22" height="21" fill="none" xmlns="http://www.w3.org/2000/svg"><g fill="#36354C"><path d="M14.11 20.591a.99.99 0 0 1-.477-.123c-6.771-3.765-6.589-8.675-6.577-8.883a4.398 4.398 0 0 1 4.363-4.398 4.352 4.352 0 0 1 2.858 1.085 4.329 4.329 0 0 1 2.847-1.085A4.422 4.422 0 0 1 21.5 11.62c0 .496 0 5.214-6.59 8.85a.989.989 0 0 1-.474.122h-.325zM11.42 8.925a2.672 2.672 0 0 0-2.614 2.707c0 .21-.128 4.001 5.472 7.175 5.658-3.209 5.471-7.082 5.471-7.117v-.058a2.671 2.671 0 0 0-2.625-2.707 2.637 2.637 0 0 0-1.795.757c-.238.234-.54.41-.873.41h-.368c-.333 0-.636-.177-.874-.411a2.602 2.602 0 0 0-1.795-.744v-.012z"/><path d="M9.915 19.775a.875.875 0 0 1-.875.875H1.5a1 1 0 0 1-1-1V4.183a1 1 0 0 1 .68-.947L10.13.222a.5.5 0 0 1 .66.474v3.69a.875.875 0 0 1-1.75 0V2.439L2.25 4.725V18.9h6.79c.483 0 .875.392.875.875zM14.892 15.658a.5.5 0 0 1-.729.037L12.19 13.79a.875.875 0 0 1 1.215-1.259l1.015.979 4.025-4.76 1.341 1.132-4.893 5.776z"/></g></svg>