<svg width="19" height="15" fill="none" xmlns="http://www.w3.org/2000/svg"><path d="M16.11 14.31H1.93A1.94 1.94 0 0 1 0 12.38V1.93A1.93 1.93 0 0 1 1.93 0h14.18a1.93 1.93 0 0 1 1.93 1.93v10.45a1.94 1.94 0 0 1-1.93 1.93zM1.93 1.5a.43.43 0 0 0-.43.43v10.45a.43.43 0 0 0 .43.43h14.18a.43.43 0 0 0 .44-.43V1.93a.43.43 0 0 0-.43-.43H1.93z" fill="#36354C"/><path d="M12.97 7.99V3.77a.75.75 0 0 0-1.5 0v4.22a.75.75 0 0 0 1.5 0z" fill="#36354C"/><path d="M14.32 5.129H10.1a.75.75 0 0 0 0 1.5h4.22a.75.75 0 0 0 0-1.5zM8.37 9.68H3.92a.75.75 0 0 0 0 1.5h4.45a.75.75 0 0 0 0-1.5zM5.55 7.09H3.92a.75.75 0 0 0 0 1.5h1.63a.75.75 0 1 0 0-1.5z" fill="#36354C"/></svg>