<svg width="80" height="80" viewBox="0 0 80 80" fill="none" xmlns="http://www.w3.org/2000/svg">
    <path d="M60.22 40.6707H25.7563C25.1617 40.6707 24.6796 41.1527 24.6796 41.7474V63.4822C24.6796 64.0769 25.1617 64.5589 25.7563 64.5589H60.22C60.8147 64.5589 61.2967 64.0769 61.2967 63.4822V41.7474C61.2967 41.1527 60.8147 40.6707 60.22 40.6707Z" fill="#E7E7F0"/>
    <path d="M56.3698 28.5169C54.8186 29.3289 53.2492 29.6392 51.3604 29.6392C46.7433 29.6392 42.838 26.2631 42.838 20.8613C42.838 15.0672 46.8619 10.0577 53.1123 10.0577C58.0122 10.0577 61.2971 13.4886 61.2971 18.1878C61.2971 22.4125 58.9338 24.8853 56.2877 24.8853C55.1653 24.8853 54.1251 24.1279 54.2073 22.4125H54.0978C53.1123 24.0732 51.8166 24.8853 50.1286 24.8853C48.4405 24.8853 47.0901 23.5622 47.0901 21.3449C47.0901 17.8593 49.8457 14.6748 53.7602 14.6748C54.9737 14.6748 56.0413 14.9303 56.7713 15.2679L55.8132 20.3594C55.3935 22.4946 55.7311 23.4801 56.6527 23.5074C58.0852 23.5348 59.6912 21.6186 59.6912 18.3611C59.6912 14.2824 57.2458 11.3534 52.8842 11.3534C48.2945 11.3534 44.4439 14.985 44.4439 20.6971C44.4439 25.3962 47.5098 28.2979 51.6797 28.2979C53.2857 28.2979 54.773 27.9603 55.9318 27.3124L56.3789 28.526L56.3698 28.5169ZM54.8186 16.3629C54.5358 16.2807 54.0613 16.1621 53.4134 16.1621C50.9406 16.1621 48.9424 18.498 48.9424 21.2263C48.9424 22.4672 49.5628 23.3614 50.8038 23.3614C52.4371 23.3614 53.9244 21.281 54.2346 19.5382L54.8277 16.3537L54.8186 16.3629Z" fill="#36354C"/>
    <path d="M55.5119 28.0518H11.5586C9.97119 28.0518 8.68434 29.3386 8.68434 30.926V51.9035C8.68434 53.4909 9.97119 54.7778 11.5586 54.7778H55.5119C57.0993 54.7778 58.3862 53.4909 58.3862 51.9035V30.926C58.3862 29.3386 57.0993 28.0518 55.5119 28.0518Z" fill="#D0BDF4"/>
    <path d="M55.5119 55.462H11.5586C9.59681 55.462 8 53.8652 8 51.9034V30.9259C8 28.9641 9.59681 27.3673 11.5586 27.3673H55.5119C57.4737 27.3673 59.0705 28.9641 59.0705 30.9259V51.9034C59.0705 53.8652 57.4737 55.462 55.5119 55.462ZM11.5586 28.736C10.3542 28.736 9.36869 29.7215 9.36869 30.9259V51.9034C9.36869 53.117 10.3542 54.0933 11.5586 54.0933H55.5119C56.7164 54.0933 57.7018 53.1079 57.7018 51.9034V30.9259C57.7018 29.7215 56.7164 28.736 55.5119 28.736H11.5586Z" fill="#36354C"/>
    <path d="M20.0442 42.0943C19.6701 42.0943 19.3599 41.784 19.3599 41.4099V37.3404C19.3599 36.9662 19.6701 36.656 20.0442 36.656C20.4183 36.656 20.7286 36.9662 20.7286 37.3404V41.4099C20.7286 41.784 20.4183 42.0943 20.0442 42.0943Z" fill="#36354C"/>
    <path d="M20.0445 42.0945C19.8073 42.0945 19.5791 41.9759 19.4514 41.7478C19.2598 41.4193 19.3784 40.9995 19.7069 40.817L23.2381 38.7822C23.5666 38.5998 23.9863 38.7093 24.1688 39.0377C24.3513 39.3662 24.2418 39.786 23.9133 39.9684L20.3821 42.0032C20.2726 42.0671 20.154 42.0945 20.0445 42.0945Z" fill="#36354C"/>
    <path d="M23.5667 44.1381C23.4481 44.1381 23.3295 44.1107 23.22 44.0468L19.6979 42.0029C19.3694 41.8113 19.2599 41.3916 19.4515 41.0631C19.6431 40.7346 20.0628 40.6251 20.3822 40.8167L23.9043 42.8606C24.2328 43.0522 24.3423 43.472 24.1507 43.8005C24.0229 44.0194 23.7948 44.1381 23.5576 44.1381H23.5667Z" fill="#36354C"/>
    <path d="M20.026 46.1639C19.6519 46.1639 19.3416 45.8536 19.3416 45.4795L19.3599 41.4099C19.3599 41.0358 19.6701 40.7256 20.0442 40.7256C20.4183 40.7256 20.7286 41.0358 20.7286 41.4099L20.7103 45.4795C20.7103 45.8536 20.4001 46.1639 20.026 46.1639Z" fill="#36354C"/>
    <path d="M16.5132 44.1106C16.2759 44.1106 16.0478 43.9828 15.9201 43.7638C15.7284 43.4353 15.8471 43.0156 16.1756 42.8331L19.7159 40.8166C20.0444 40.625 20.4641 40.7436 20.6466 41.0721C20.8382 41.4006 20.7196 41.8203 20.3911 42.0028L16.8508 44.0193C16.7413 44.0832 16.6227 44.1106 16.5132 44.1106Z" fill="#36354C"/>
    <path d="M20.0445 42.0944C19.9259 42.0944 19.8073 42.067 19.6978 42.0032L16.1848 39.941C15.8563 39.7494 15.7468 39.3297 15.9384 39.0012C16.13 38.6727 16.5498 38.5632 16.8783 38.7548L20.3912 40.817C20.7197 41.0086 20.8292 41.4283 20.6376 41.7568C20.5099 41.9758 20.2817 42.0944 20.0445 42.0944Z" fill="#36354C"/>
    <path d="M33.8496 42.0943C33.4755 42.0943 33.1652 41.784 33.1652 41.4099V37.3404C33.1652 36.9662 33.4755 36.656 33.8496 36.656C34.2237 36.656 34.5339 36.9662 34.5339 37.3404V41.4099C34.5339 41.784 34.2237 42.0943 33.8496 42.0943Z" fill="#36354C"/>
    <path d="M33.8498 42.0945C33.6126 42.0945 33.3845 41.9759 33.2567 41.7478C33.0651 41.4193 33.1837 40.9995 33.5122 40.817L37.0435 38.7822C37.3719 38.5998 37.7917 38.7093 37.9742 39.0377C38.1658 39.3662 38.0472 39.786 37.7187 39.9684L34.1874 42.0032C34.0779 42.0671 33.9593 42.0945 33.8498 42.0945Z" fill="#36354C"/>
    <path d="M37.372 44.1381C37.2534 44.1381 37.1348 44.1107 37.0253 44.0468L33.5032 42.0029C33.1747 41.8113 33.0652 41.3916 33.2568 41.0631C33.4484 40.7346 33.8682 40.6251 34.1875 40.8167L37.7096 42.8606C38.0381 43.0522 38.1476 43.472 37.956 43.8005C37.8283 44.0194 37.6001 44.1381 37.3629 44.1381H37.372Z" fill="#36354C"/>
    <path d="M33.8313 46.1639C33.4572 46.1639 33.1469 45.8536 33.1469 45.4795L33.1652 41.4099C33.1652 41.0358 33.4754 40.7256 33.8495 40.7256C34.2236 40.7256 34.5339 41.0358 34.5339 41.4099L34.5156 45.4795C34.5156 45.8536 34.2054 46.1639 33.8313 46.1639Z" fill="#36354C"/>
    <path d="M30.3185 44.1106C30.0813 44.1106 29.8531 43.9828 29.7254 43.7638C29.5338 43.4353 29.6524 43.0156 29.9809 42.8331L33.5212 40.8166C33.8497 40.625 34.2695 40.7436 34.452 41.0721C34.6436 41.4006 34.525 41.8203 34.1965 42.0028L30.6561 44.0193C30.5466 44.0832 30.428 44.1106 30.3185 44.1106Z" fill="#36354C"/>
    <path d="M33.8498 42.0944C33.7312 42.0944 33.6126 42.067 33.5031 42.0032L29.9901 39.941C29.6616 39.7494 29.5521 39.3297 29.7438 39.0012C29.9354 38.6727 30.3551 38.5632 30.6836 38.7548L34.1966 40.817C34.5251 41.0086 34.6346 41.4283 34.4429 41.7568C34.3152 41.9758 34.0871 42.0944 33.8498 42.0944Z" fill="#36354C"/>
    <path d="M47.6554 42.0943C47.2812 42.0943 46.971 41.784 46.971 41.4099V37.3404C46.971 36.9662 47.2812 36.656 47.6554 36.656C48.0295 36.656 48.3397 36.9662 48.3397 37.3404V41.4099C48.3397 41.784 48.0295 42.0943 47.6554 42.0943Z" fill="#36354C"/>
    <path d="M47.6556 42.0945C47.4184 42.0945 47.1903 41.9759 47.0625 41.7478C46.8709 41.4193 46.9895 40.9995 47.318 40.817L50.8493 38.7822C51.1778 38.5998 51.5975 38.7093 51.78 39.0377C51.9625 39.3662 51.853 39.786 51.5245 39.9684L47.9933 42.0032C47.8838 42.0671 47.7651 42.0945 47.6556 42.0945Z" fill="#36354C"/>
    <path d="M51.1778 44.1381C51.0592 44.1381 50.9406 44.1107 50.8311 44.0468L47.309 42.0029C46.9805 41.8113 46.871 41.3916 47.0626 41.0631C47.2543 40.7346 47.674 40.6251 47.9934 40.8167L51.5155 42.8606C51.8439 43.0522 51.9534 43.472 51.7618 43.8005C51.6341 44.0194 51.406 44.1381 51.1687 44.1381H51.1778Z" fill="#36354C"/>
    <path d="M47.6371 46.1639C47.263 46.1639 46.9528 45.8536 46.9528 45.4795L46.971 41.4099C46.971 41.0358 47.2812 40.7256 47.6554 40.7256C48.0295 40.7256 48.3397 41.0358 48.3397 41.4099L48.3215 45.4795C48.3215 45.8536 48.0112 46.1639 47.6371 46.1639Z" fill="#36354C"/>
    <path d="M44.1243 44.1106C43.8871 44.1106 43.659 43.9828 43.5312 43.7638C43.3396 43.4353 43.4582 43.0156 43.7867 42.8331L47.3271 40.8166C47.6555 40.625 48.0753 40.7436 48.2578 41.0721C48.4494 41.4006 48.3308 41.8203 48.0023 42.0028L44.4619 44.0193C44.3524 44.0832 44.2338 44.1106 44.1243 44.1106Z" fill="#36354C"/>
    <path d="M47.6557 42.0944C47.537 42.0944 47.4184 42.067 47.3089 42.0032L43.7959 39.941C43.4675 39.7494 43.358 39.3297 43.5496 39.0012C43.7412 38.6727 44.1609 38.5632 44.4894 38.7548L48.0024 40.817C48.3309 41.0086 48.4404 41.4283 48.2488 41.7568C48.121 41.9758 47.8929 42.0944 47.6557 42.0944Z" fill="#36354C"/>
    <path d="M66.6803 69.9428H25.7473C22.8091 69.9428 20.4185 67.5522 20.4185 64.6141V55.3343C20.4185 54.9602 20.7287 54.65 21.1028 54.65C21.4769 54.65 21.7872 54.9602 21.7872 55.3343V64.6141C21.7872 66.7948 23.5665 68.5741 25.7473 68.5741H66.6712C68.852 68.5741 70.6313 66.7948 70.6313 64.6141V43.1347C70.6313 40.9539 68.852 39.1746 66.6712 39.1746H62.0724C61.6983 39.1746 61.3881 38.8644 61.3881 38.4903C61.3881 38.1161 61.6983 37.8059 62.0724 37.8059H66.6712C69.6093 37.8059 72 40.1966 72 43.1347V64.6141C72 67.5522 69.6093 69.9428 66.6712 69.9428H66.6803Z" fill="#36354C"/>
    <path d="M65.3118 56.3835C63.9249 56.3835 62.8026 55.2612 62.8026 53.8743C62.8026 52.4873 63.9249 51.365 65.3118 51.365C66.6988 51.365 67.8211 52.4873 67.8211 53.8743C67.8211 55.2612 66.6988 56.3835 65.3118 56.3835ZM65.3118 52.7337C64.6822 52.7337 64.1712 53.2447 64.1712 53.8743C64.1712 54.5039 64.6822 55.0148 65.3118 55.0148C65.9414 55.0148 66.4524 54.5039 66.4524 53.8743C66.4524 53.2447 65.9414 52.7337 65.3118 52.7337Z" fill="#36354C"/>
</svg>
