<svg width="33" height="33" fill="none" xmlns="http://www.w3.org/2000/svg"><path fill-rule="evenodd" clip-rule="evenodd" d="M15.276 15.828h2v2.141h2.18v2h-2.18v2.14h-2v-2.14h-2.18v-2h2.18v-2.14z" fill="#F07975"/><path d="M16.276 28.178a.769.769 0 0 1-.3-.06 11.41 11.41 0 0 1-6.37-7.29 14.998 14.998 0 0 1-.54-2.25 17.84 17.84 0 0 1-.19-3.79 1.58 1.58 0 0 1 1-1.37l5.87-2.2a1.46 1.46 0 0 1 1 0l5.87 2.2a1.58 1.58 0 0 1 1 1.37c.14 2.31 0 10.12-7.08 13.32a.67.67 0 0 1-.26.07zm0-15.56-5.87 2.21a15.26 15.26 0 0 0 .15 3.52c.11.678.27 1.347.48 2a9.9 9.9 0 0 0 5.24 6.24c6-2.89 6-9.68 5.89-11.72l-5.89-2.25z" fill="#36354C"/><path d="M6.056 26.658h-2.52a.75.75 0 1 1 0-1.5h1.77V9.908a.77.77 0 0 1 .43-.69l7.17-3.29a.74.74 0 0 1 .72.05.74.74 0 0 1 .35.63v3.11a.75.75 0 0 1-.75.75.741.741 0 0 1-.75-.75v-1.94l-5.67 2.61v15.52a.76.76 0 0 1-.75.75zM29.036 26.72h-2.32a.741.741 0 0 1-.75-.75V12.13l-6.12-2.3a.77.77 0 0 1-.44-1 .748.748 0 0 1 1-.43l6.6 2.48a.76.76 0 0 1 .49.7v13.61h1.57a.76.76 0 0 1 .75.75.75.75 0 0 1-.78.78z" fill="#36354C"/></svg>