<svg width="120" height="84" fill="none" xmlns="http://www.w3.org/2000/svg"><path fill="#fff" d="M0 0h120v84H0z"/><path d="M63.783 60.963c-3.164 0-5.583-5.025-5.583-11.166s2.42-10.98 5.583-10.98h7.072v22.146h-7.072z" fill="#343758"/><path d="M70.854 60.964c-3.083 0-5.583-4.999-5.583-11.166 0-6.166 2.5-11.166 5.583-11.166s5.583 5 5.583 11.166c0 6.167-2.5 11.166-5.583 11.166z" fill="#0B0E34"/><path d="M22.655 60.963c-3.163 0-5.583-5.025-5.583-11.166s2.42-10.98 5.583-10.98h7.258v22.146h-7.258z" fill="#343758"/><path d="M29.912 60.964c-3.084 0-5.583-4.999-5.583-11.166 0-6.166 2.5-11.166 5.583-11.166s5.583 5 5.583 11.166c0 6.167-2.5 11.166-5.583 11.166z" fill="#0B0E34"/><path d="m100.442 55.382 3.908-.93a14.892 14.892 0 0 0 4.652-2.048c.745-.558 2.233-1.489 1.861-6.513-.186-1.303-.558-5.397-.558-5.397a4.282 4.282 0 0 0-3.35-3.908l-2.605-.93-9.863-.559 5.955 20.285z" fill="#D9DAE8"/><path d="m97.836 46.45 2.606 8.932 3.908-.93a14.89 14.89 0 0 0 4.652-2.047c.745-.559 2.233-1.489 1.861-6.514a.736.736 0 0 0-.186-.558l-6.327 1.117h-6.514z" fill="#B0B1C4"/><path d="M92.07 60.963c-3.163 0-5.582-5.025-5.582-11.166s2.42-10.98 5.583-10.98h7.258v22.146H92.07z" fill="#0B0E34"/><path d="M99.328 60.964c-3.083 0-5.583-4.999-5.583-11.166 0-6.166 2.5-11.166 5.583-11.166 3.084 0 5.583 5 5.583 11.166 0 6.167-2.499 11.166-5.583 11.166z" fill="#343758"/><path d="M99.325 56.498c-1.85 0-3.35-3-3.35-6.7s1.5-6.7 3.35-6.7 3.35 3 3.35 6.7-1.5 6.7-3.35 6.7z" fill="#B0B1C4"/><path d="M42.377 55.381 32.7 33.794S47.216 23 65.64 23c29.775 0 28.659 3.908 38.708 12.655l-4.466 3.163c-7.63 0-8.375 12.283-9.491 15.633a1.49 1.49 0 0 1-1.303.93h-46.71z" fill="#D9DAE8"/><path d="M55.777 46.449v2.233a40.38 40.38 0 0 0 .186 6.7h33.125a1.49 1.49 0 0 0 1.303-.931c.558-1.489.93-4.839 1.861-8.002H55.777z" fill="#B0B1C4"/><path d="M50.943 60.963c-2.977 0-5.583-5.025-5.583-11.166s2.606-10.98 5.583-10.98h7.258v22.146h-7.258z" fill="#0B0E34"/><path d="M58.2 60.964c-3.083 0-5.582-4.999-5.582-11.166 0-6.166 2.5-11.166 5.583-11.166s5.583 5 5.583 11.166c0 6.167-2.5 11.166-5.583 11.166z" fill="#343758"/><path d="M58.199 56.498c-1.85 0-3.35-3-3.35-6.7s1.5-6.7 3.35-6.7 3.35 3 3.35 6.7-1.5 6.7-3.35 6.7z" fill="#B0B1C4"/><path d="M48.15 53.52c.93-3.908 5.211-14.701 10.236-14.701l5.583-5.025H32.704c-2.047 0-11.724 1.303-17.12 5.025-5.398 3.722-5.025 7.444-5.584 14.143a2.42 2.42 0 0 0 2.606 2.42H45.73a2.42 2.42 0 0 0 2.42-1.862z" fill="#D9DAE8"/><path d="M48.148 53.52a34.61 34.61 0 0 1 2.791-7.072H31.772a1.675 1.675 0 0 1-1.489-1.489 1.675 1.675 0 0 0-1.488-1.489H20.79a1.675 1.675 0 0 0-1.488 1.303v.558A1.675 1.675 0 0 1 18 46.448h-6.886a30.336 30.336 0 0 0-.93 6.513 2.42 2.42 0 0 0 2.605 2.42h33.684a2.233 2.233 0 0 0 1.675-1.861z" fill="#B0B1C4"/><path d="M34.937 33.793h20.471a3.163 3.163 0 0 0 2.42-1.303 32.006 32.006 0 0 1 9.118-8.374c-20.47 0-32.009 9.677-32.009 9.677zM67.505 25.234a25.683 25.683 0 0 0-6.886 7.258.931.931 0 0 0 .744 1.303h33.498c3.536 0 2.233-8.933-16.19-9.491h-8.003a5.025 5.025 0 0 0-3.163.93z" fill="#343758"/><path d="m35.866 38.074 14.888-.745s.186 2.792-5.397 3.35a14.516 14.516 0 0 1-9.491-2.605z" fill="#fff"/><path d="M110.307 40.493a3.536 3.536 0 0 0-.373-1.303h-.93s0 3.909 1.303 3.536h.186l-.186-2.233z" fill="#D6D9E0"/><path d="m17.069 37.889-1.489.93-2.047 1.675h.744a6.327 6.327 0 0 0 5.583-2.605H17.07z" fill="#fff"/></svg>