<svg xmlns="http://www.w3.org/2000/svg" width="120" height="84" fill="none"><path fill="#fff" d="M0 0h120v84H0z"/><path d="M81.705 67.352c-5.835-.159-10.566-6.52-10.566-14.152s4.731-13.675 10.566-13.675h3.312v27.987l-3.312-.159z" fill="#0b0e34"/><path d="M96.216 53.835c0-7.633-4.889-14.152-10.881-14.152s-10.724 5.884-10.724 13.516 4.731 14.152 10.724 14.311 10.881-5.884 10.881-13.675z" fill="#343758"/><path d="M91.801 53.837c0-4.77-2.839-8.746-6.466-8.746s-6.308 3.657-6.308 8.269 2.839 8.587 6.308 8.746 6.466-3.657 6.466-8.269z" fill="#b0b1c4"/><path d="M43.86 22.352c.315 0 .631 0 .788-.318a.95.95 0 0 0 .347-.311.96.96 0 0 0 .09-.904.968.968 0 0 0-.279-.375l-2.681-3.021a4.24 4.24 0 0 0-2.996-1.272h-3.785a1.1 1.1 0 0 0-.781.326 1.12 1.12 0 0 0-.323.787 1.28 1.28 0 0 0 .312.848 1.26 1.26 0 0 0 .792.424h3.943c.364.03.703.201.946.477l2.681 3.021.946.318zm-9.307 27.985a1.72 1.72 0 0 0 1.39.045c.222-.09.424-.225.592-.396a1.75 1.75 0 0 0 .384-.602l7.412-18.605-3.469-1.431-7.254 18.605a1.76 1.76 0 0 0-.044 1.401 1.75 1.75 0 0 0 .393.596 1.73 1.73 0 0 0 .597.388z" fill="#343758"/><path d="M66.567 31.732c0 3.975 7.57 4.93 10.881 4.134l8.989-1.59a3.444 3.444 0 0 1 2.208.318 7.45 7.45 0 0 1 3.469 3.816 1.76 1.76 0 0 1-.412 1.811 1.73 1.73 0 0 1-.839.468 1.72 1.72 0 0 1-.957-.053 8.139 8.139 0 0 0-5.519-.318c-3.627.954-5.835 3.339-7.097 7.951s-1.577 6.202-2.365 6.997-17.82 1.431-19.24.954-7.727-26.874-7.727-26.874l18.609 2.385z" fill="#d9dae8"/><path d="M47.959 29.347c1.104 4.134 7.727 26.874 7.727 26.874s-4.889-.159-6.308-.954c-3.785-1.908-8.358-25.92-8.358-25.92h6.939z" fill="#0b0e34"/><path d="M66.565 31.732s-.788 4.612-9.462 3.498l2.05 8.428a7 7 0 0 0 2.407 3.611 6.903 6.903 0 0 0 4.058 1.478H77.13c-.788 3.021-1.419 5.725-2.208 6.52s-17.82 1.431-19.24.954-7.727-26.874-7.727-26.874l18.609 2.385z" fill="#b0b1c4"/><path d="m47.961 29.348 1.892-6.202a19.4 19.4 0 0 1 9.147 0c4.258 1.431 7.412 4.453 7.57 8.587 0 0-.315 4.929-18.609-2.385z" fill="#d9dae8"/><path d="M34.87 67.829c-5.835-.318-10.566-6.838-10.566-14.789s4.731-14.152 10.566-13.993h3.154v28.941l-3.154-.159z" fill="#0b0e34"/><path d="M49.218 53.836c0-7.951-4.889-14.629-10.724-14.629S27.771 45.408 27.771 53.2s4.731 14.471 10.724 14.789 10.724-6.043 10.724-14.152z" fill="#343758"/><path d="M44.803 53.837c0-4.929-2.839-9.064-6.308-9.064s-6.466 3.816-6.466 8.587 2.839 8.905 6.466 9.064 6.308-3.816 6.308-8.587z" fill="#b0b1c4"/><path d="M37.868 55.744c.216.104.451.161.69.169a1.72 1.72 0 0 0 .7-.124 1.74 1.74 0 0 0 .592-.396 1.75 1.75 0 0 0 .384-.602l6.939-17.492a1.767 1.767 0 0 0-.315-1.908 1.89 1.89 0 0 0-.773-.536 1.883 1.883 0 0 0-1.798.272 1.91 1.91 0 0 0-.583.742L36.765 53.52a1.76 1.76 0 0 0 .091 1.346 1.75 1.75 0 0 0 .419.543 1.73 1.73 0 0 0 .594.338z" fill="#343758"/><g fill="#d9dae8"><path d="M41.65 19.329s5.835-1.59 8.358 3.021-1.419 10.336-8.358 9.382V19.329z"/><path d="M36.604 25.533c0 3.339 2.208 6.202 5.046 6.202s4.889-2.703 4.889-6.043-2.208-6.202-4.889-6.361-5.046 2.862-5.046 6.202z"/></g><path d="M37.707 25.372c0 2.703 1.419 4.771 3.312 4.771s3.312-2.067 3.312-4.612-1.419-4.77-3.312-4.77-3.312 2.067-3.312 4.611z" fill="#fff"/><path d="M50.011 22.828a1.41 1.41 0 0 0 .946-.477l1.892-1.908a4.873 4.873 0 0 1 1.593-1.064 4.87 4.87 0 0 1 1.876-.367h4.1c.335 0 .656-.134.892-.373a1.28 1.28 0 0 0 .37-.899 1.274 1.274 0 0 0-.421-.798 1.26 1.26 0 0 0-.841-.315h-4.1a8.01 8.01 0 0 0-5.204 2.067l-2.05 2.067a1.13 1.13 0 0 0-.211.388 1.12 1.12 0 0 0 .086.863 1.11 1.11 0 0 0 .283.338.79.79 0 0 0 .318.366.78.78 0 0 0 .47.111zm16.558 8.905a18.95 18.95 0 0 0 5.362-.636c1.104-.795 9.304-2.067 14.508-1.272 0 0 2.366.318 2.523.954s1.104 3.975.631 4.452-11.67 1.431-12.458 1.59-8.989.318-11.197-3.816l.631-1.272zm20.34 23.376a2.22 2.22 0 0 0 1.12-1.209 2.24 2.24 0 0 0-.016-1.654l-3.943-7.951a2.53 2.53 0 0 0-1.368-1.158 2.505 2.505 0 0 0-1.786.045 2.22 2.22 0 0 0-1.12 1.209 2.24 2.24 0 0 0 .016 1.654l3.942 7.951a2.53 2.53 0 0 0 1.368 1.159 2.505 2.505 0 0 0 1.786-.045z" fill="#343758"/><path d="m35.815 37.139 11.828 1.113c.158.159.473 0 .473-.318l.315-1.272c.158-.318-.158-.636-.473-.636L36.13 34.913c-.315 0-.473.159-.631.477v1.113c-.315.318 0 .636.315.636z" fill="#b0b1c4"/></svg>