<svg width="32" height="32" viewBox="0 0 32 32" fill="none" xmlns="http://www.w3.org/2000/svg">
<path d="M17.51 11.4805H22.56C23.79 11.4805 24.78 12.4805 24.78 13.7005V25.8905C24.78 26.6305 24.18 27.2405 23.43 27.2405H17.5V11.4805H17.51Z" fill="#E3FAFC"/>
<path d="M23.44 28H8.1C6.94 28 6 27.08 6 25.95V7.09C6 5.94 6.96 5 8.14 5H17.4C18.14 5 18.84 5.28 19.37 5.78L24.68 10.84C25.22 11.35 25.53 12.07 25.53 12.81V25.94C25.53 27.07 24.59 27.99 23.43 27.99L23.44 28ZM8.14 6.5C7.79 6.5 7.5 6.77 7.5 7.09V25.95C7.5 26.25 7.77 26.5 8.1 26.5H23.44C23.77 26.5 24.04 26.25 24.04 25.95V12.81C24.04 12.48 23.9 12.16 23.66 11.93L18.34 6.87C18.09 6.64 17.75 6.5 17.41 6.5H8.14Z" fill="#36354C"/>
<path d="M24.79 13.88C24.38 13.88 24.04 13.54 24.04 13.13C24.04 12.84 23.78 12.6 23.47 12.6H18.3C17.89 12.6 17.55 12.27 17.55 11.85V7.03C17.54 6.74 17.28 6.5 16.96 6.5C16.55 6.5 16.21 6.16 16.21 5.75C16.21 5.34 16.54 5 16.96 5C18.09 5 19.03 5.91 19.03 7.03V11.1H23.47C24.61 11.1 25.54 12.01 25.54 13.13C25.54 13.54 25.2 13.88 24.79 13.88Z" fill="#36354C"/>
<path d="M19.1099 19.1914H10.6499C10.2399 19.1914 9.8999 18.8514 9.8999 18.4414C9.8999 18.0314 10.2399 17.6914 10.6499 17.6914H19.1099C19.5199 17.6914 19.8599 18.0314 19.8599 18.4414C19.8599 18.8514 19.5199 19.1914 19.1099 19.1914Z" fill="#36354C"/>
<path d="M17.1099 22.9688H10.6499C10.2399 22.9688 9.8999 22.6287 9.8999 22.2188C9.8999 21.8088 10.2399 21.4688 10.6499 21.4688H17.1099C17.5199 21.4688 17.8599 21.8088 17.8599 22.2188C17.8599 22.6287 17.5199 22.9688 17.1099 22.9688Z" fill="#36354C"/>
<path d="M15.0399 15.5814H10.6499C10.2399 15.5814 9.8999 15.2414 9.8999 14.8314V10.4414C9.8999 10.0314 10.2399 9.69141 10.6499 9.69141H15.0399C15.4499 9.69141 15.7899 10.0314 15.7899 10.4414V14.8314C15.7899 15.2414 15.4499 15.5814 15.0399 15.5814ZM11.3999 14.0814H14.2899V11.1914H11.3999V14.0814Z" fill="#36354C"/>
</svg>
