<svg width="32" height="32" fill="none" xmlns="http://www.w3.org/2000/svg"><path d="M17.51 11.48h5.05c1.23 0 2.22 1 2.22 2.22v12.19c0 .74-.6 1.35-1.35 1.35H17.5V11.48h.01z" fill="#E3FAFC"/><path d="M23.44 28H8.1C6.94 28 6 27.08 6 25.95V7.09C6 5.94 6.96 5 8.14 5h9.26c.74 0 1.44.28 1.97.78l5.31 5.06c.54.51.85 1.23.85 1.97v13.13c0 1.13-.94 2.05-2.1 2.05l.01.01zM8.14 6.5c-.35 0-.64.27-.64.59v18.86c0 .3.27.55.6.55h15.34c.33 0 .6-.25.6-.55V12.81c0-.33-.14-.65-.38-.88l-5.32-5.06c-.25-.23-.59-.37-.93-.37H8.14z" fill="#36354C"/><path d="M24.79 13.88c-.41 0-.75-.34-.75-.75 0-.29-.26-.53-.57-.53H18.3c-.41 0-.75-.33-.75-.75V7.03c-.01-.29-.27-.53-.59-.53a.749.749 0 1 1 0-1.5c1.13 0 2.07.91 2.07 2.03v4.07h4.44c1.14 0 2.07.91 2.07 2.03 0 .41-.34.75-.75.75zM19.11 19.191h-8.46c-.41 0-.75-.34-.75-.75s.34-.75.75-.75h8.46c.41 0 .75.34.75.75s-.34.75-.75.75zM17.11 22.969h-6.46c-.41 0-.75-.34-.75-.75s.34-.75.75-.75h6.46c.41 0 .75.34.75.75s-.34.75-.75.75zM15.04 15.581h-4.39c-.41 0-.75-.34-.75-.75v-4.39c0-.41.34-.75.75-.75h4.39c.41 0 .75.34.75.75v4.39c0 .41-.34.75-.75.75zm-3.64-1.5h2.89v-2.89H11.4v2.89z" fill="#36354C"/></svg>