<svg width="250" height="168" fill="none" xmlns="http://www.w3.org/2000/svg"><g clip-path="url(#a)"><path d="M147.27 69.248c-1.1-.77-2.13-1.68-3.32-2.26-1.23-.6-2.61-.96-3.96-1.23-.44-.09-1.19.26-1.47.65-1.53 2.1-2.96 4.28-4.28 6.21-2.41-2.38-4.67-4.63-6.94-6.87l-1.21 1.2c1.57 1.52 3.14 3.04 4.96 4.81-2.03-.15-1.76 4.66-5.16 1.74.83-.52 1.53-.96 3.32-2.08-1.3-.75-2.3-1.11-3.03-1.78-2.68-2.44-3.6-2.48-6.27.11-.86.84-1.47 2.08-2.48 2.58-1.51.76-3.27 1.03-4.92 1.51-.35-1.23-.77-2.45-1.01-3.7-.13-.64.06-1.35.11-2.16 1.97-.12 3.78-.23 6.07-.36-1.1-1.58-1.87-2.68-2.47-3.54 3.21-2.96 6.3-5.8 9.44-8.71 3.33 2.79 5.02 2.4 8.65-1.79 1.3-1.5 3.29-2.41 4.87-3.53-1.55-.42-4.33-.56-4.56-1.38-.42-1.54.66-3.49.67-5.8-1.36 1.59-2.73 3.17-4.09 4.76.28.11.57.22.85.32-.58 2.06-1.11 4.14-1.84 6.15-.07.19-1.69.21-2.11-.2-.57-.56-.68-1.59-.95-2.32-.31-.15-.56-.35-.65-.3-1.3.79-2.98 1.96-3.67-.13-.39-1.19.4-3.18 1.3-4.29 1.49-1.83 3.55-3.19 5.26-4.86.77-.75 1.37-1.73 1.86-2.7 1.67-3.33 4.82-4.48 8.17-2.78 1.69.86 3.32 1.85 4.91 2.89 1.92 1.26 3.77 2.84 5.44-1 .95 1.62 1.56 2.65 2.16 3.68 4.42-3.31 9.19-3.78 14.48-2.66-.11-.64-.19-1.19-.29-1.73-.49-2.66.64-4.32 3.08-3.58 3.96 1.21 6.78-1.23 10.03-2.26 4.34-1.36 8.57-3.13 12.97-4.21 2.6-.64 5.1.07 6.18 3.29.83 2.5 3.43 3.57 5.53 2.24 1.67-1.06 2.67-.42 3.62.64 2.48 2.75 5.12 2.76 8.39 1.34 1.63-.71 3.89-.65 5.68-.21 4.12 1.02 8.12 2.53 12.2 3.73.8.23 1.8.11 2.62-.13 5.6-1.65 9.51 1.77 13.64 4.49.36.24.66 1.35.5 1.48-.55.47-1.32.94-2 .94-.86 0-1.71-.65-2.57-.67-.8-.02-2.29.37-2.31.64-.19 3.73-3.72 3.55-5.68 4.08-3.41.92-5.11 2.83-6.19 5.82-.41 1.13-.62 2.39-1.29 3.34-.57.81-1.66 1.26-2.52 1.86-.48-1.08-1.56-2.33-1.32-3.2.53-1.87 1.78-3.53 2.65-5.31.47-.96.79-1.99 1.18-2.99l-.77-.52c-.74.58-1.4 1.41-2.24 1.68-1.62.51-3.41 1.17-5.01.94-3.45-.5-5.64.09-7.54 2.88-1.06 1.55-1.39 2.93.29 4.5.68.63.95 2.3.65 3.27-1.01 3.29-1.89 6.69-5.94 7.98-.77.24-.85 2.71-1.21 4.16-.28 1.12-.49 2.25-.73 3.38l-1.01-.11c-.43-1.29-.65-2.72-1.37-3.83-.46-.72-1.65-.99-2.51-1.45-.34.91-.75 1.8-.99 2.74-.08.31.28.72.43 1.1 2.64 6.74.06 11.56-7.03 12.96-2.54.5-3.05 2.01-2.34 4.18.37 1.13 1.29 2.15 1.41 3.27.1.87-.66 1.83-1.04 2.74-.76-.51-1.58-.95-2.26-1.54-.44-.38-.68-1-1.01-1.5l-.99.3c.57 2.64 1.13 5.28 1.7 7.92-.35.12-.69.24-1.04.36-.6-1.15-1.29-2.26-1.78-3.44-1.15-2.76-1.99-5.68-3.36-8.33-2.39-4.6-6.24-4.66-8.86-.15-.87 1.5-1.07 3.37-1.65 5.05-.26.77-.7 1.48-1.06 2.21-.68-.6-1.68-1.06-2-1.82-1.05-2.48-1.84-5.06-2.74-7.6-1.25-3.51-3.44-5.52-7.45-5.9-2.22-.21-4.3-1.85-6.48-2.77-.65-.27-1.42-.27-2.13-.39.06.73-.16 1.81.24 2.13 1.09.87 2.44 1.41 3.69 2.09 1.08.58 2.57.93 3.11 1.83.34.56-.51 2.24-1.26 2.96-1.72 1.65-3.63 3.13-5.61 4.47-1.74 1.19-2.93.85-3.8-1.41-1.27-3.33-3-6.5-4.59-9.71-.27-.55-.85-.95-1.28-1.43-.24.11-.48.22-.72.34.51 1.49.92 3.03 1.56 4.47 1.27 2.88 2.74 5.68 4 8.56 1.14 2.6 2.82 3.12 5.26 1.8.38-.21.92-.13 1.92-.24-.44 1.43-.57 2.62-1.14 3.56-1.08 1.79-2.15 3.71-3.66 5.1-3.19 2.92-4.69 6.04-3.02 10.37.67 1.75-.04 3.25-2.03 4.07-.8.33-1.57 1.27-1.9 2.11-.81 2.05-1.18 4.28-2.03 6.31-1.88 4.49-6.12 3.63-9.72 4.34-1-3.16-1.69-6.16-2.9-8.93-1.43-3.28-1.87-6.4-.49-9.78.28-.68-.02-1.9-.5-2.55-1.55-2.12-3.16-4.05-2.23-7.03.13-.42-1.46-1.9-2.37-2.02-1.85-.24-3.8-.05-5.67.25-5.11.84-10.51-3.59-10.47-8.72.03-4.07-.22-8.04 3.61-11.1 1.61-1.29 1.69-4.47 3.28-5.82 2.87-2.43 6.68-3.09 10.43-3.05.67 0 1.31 1.28 1.99 1.94 1.25 1.21 2.46 2.48 3.83 3.53.43.33 1.77.3 1.94 0 1.61-2.78 3.51-1.34 5.4-.53 1.99.85 3.99.95 5.55-.71.56-.6.72-1.81.62-2.69-.04-.35-1.26-.78-1.95-.8-1.44-.03-3.02.25-3.08-1.82-.06-2.13 1.32-3.01 3.29-3.05 1.99-.04 3.98 0 5.97 0 .18-.31.37-.62.55-.93l.01.04zM38.01 79.438c1.13 2.63 2.25 5.26 3.38 7.89-.27.18-.53.36-.8.53-.66-.8-1.42-1.53-1.95-2.41-2.24-3.74-4.58-7.45-6.54-11.33-.86-1.7-1.4-3.86-1.21-5.72.74-7.35-3.95-11.92-8.28-16.55-2.14-2.29-5.43-2.22-8.2-1.03-3.01 1.28-5.76 3.15-8.63 4.74-1.15.64-2.31 1.24-3.47 1.85-.16-.23-.32-.47-.47-.7 1.32-1.28 2.72-2.49 3.94-3.87.91-1.04 1.25-2.14-.72-2.56-1.07-.23-2.09-.67-3.13-1.01.67-1 1.33-2.01 2.03-3 .27-.39.64-.71 1.35-1.5-1.99-.22-3.55-.39-5.1-.56-.07-.23-.13-.45-.2-.68.88-.43 1.76-.86 2.63-1.29-.6-4.66-.16-5.63 4.91-5.91 3.93-.22 7.91.89 11.88 1.08 2.5.12 5.04-.39 7.56-.59.78-.06 1.63-.3 2.32-.07 3.1 1.01 6.09 2.55 9.26 3.15 3.06.58 6.29.36 9.43.16.41-.03 1.21-2.15.94-3.03-.46-1.52-2.3-2.82-.38-4.44 1.92-1.63 3.99-1.48 6.07-.19-2.13 3.86-1.61 5.44 2.62 7.84.3-.46.5-1.16.93-1.35.82-.37 2.13-.91 2.58-.55.59.47 1.04 2.13.68 2.59-1.28 1.63-2.91 2.98-4.45 4.41-.59.54-1.28.97-1.9 1.47-3.84 3.13-3.74 5.21.83 6.98 2.88 1.12 5.03 2.55 6.15 5.71.06-2.77 2.72-4.8 1.01-7.88-.54-.97.56-3.66 1.7-4.53 1.47-1.11 3.19-.07 4.09 1.75.47.95 1.11 1.81 1.84 2.98.83-1.06 1.41-1.82 2.05-2.64.23.12.58.19.7.39 2.22 3.64 4.37 7.33 6.64 10.95 1.26 2.01.94 3.46-1.28 4.23-2.77.96-5.87 1.27-8.34 2.71-1.98 1.15-3.31 3.5-4.76 5.44a28.568 28.568 0 0 0-2.87 4.78c-.56 1.18-.9 2.53-1.05 3.83-.12 1 .21 2.05.33 3.08-.29.09-.59.19-.88.28-.39-.76-.86-1.49-1.14-2.28-.66-1.82-1.91-2.48-3.76-2.08-.68.15-1.36.33-2.02.54-1.49.47-4.21.92-4.24 1.46-.1 2.51.48 5.07 1.06 7.56.06.25 1.83.36 2.67.11 1.13-.34 2.14-1.1 3.2-1.68-.13 1.29-.25 2.59-.37 3.88-.03.3-.04.59-.08 1.07.87-.08 1.69-.16 2.6-.24.18.43.4.77.47 1.14.83 4.58 2.46 5.28 6.51 3.2 1.03-.53 2.68-.53 3.79-.11 3.4 1.29 6.7 2.86 9.98 4.42.76.36 1.72 1.02 1.92 1.73 1.16 4.18 4.52 5.35 8.12 6.33 3.62.98 4.4 3.33 2.58 6.53-1.05 1.86-1.83 3.96-2.29 6.05-.56 2.52-1.53 4.35-4.01 5.53-1.14.54-1.8 2.14-2.62 3.3-1.5 2.13-2.97 4.29-4.43 6.45-.47.7-.86 1.45-1.3 2.18-.29.48-.48 1.25-.9 1.4-3.64 1.33-4.22 5.08-5.38 7.86-.63 1.51-1.05 3.58-1.49 5.41-.3 1.24.88 2.83 1.4 4.26-4.44 1.02-7.02-3.11-6.35-7.7 1.23-8.39 2.55-16.77 3.59-25.19.16-1.32-.77-2.89-1.52-4.17-1.13-1.93-2.77-3.58-3.74-5.57-1-2.06-3.44-3.72-2.15-6.61.58-1.3.66-2.84 1.3-4.11 1.22-2.39.9-4.03-1.49-5.52-2.19-1.35-4.04-3.23-6.16-4.7-1.36-.94-2.87-1.98-4.43-2.22-3.34-.53-5.44-2.28-6.74-5.26-.96-2.2-1.87-4.42-2.97-6.55-.47-.91-1.34-1.6-2.02-2.4l-.82.55h-.01zM73.08 25.448c-.58-.86-.9-1.33-1.31-1.93 3.27-2.53 6.91-3.31 10.96-3.19 2.21.06 4.57-.3 6.66-1.03 4.89-1.72 9.42-2.06 14.01 1.04 1.58 1.07 3.89 1.05 6.28 1.63-1.07.84-1.95 1.56-2.86 2.26-2.04 1.57-3.5 3.27-2.3 6.13.28.66-.17 1.68-.41 2.49-.35 1.17-.62 2.44-1.28 3.43-.81 1.2-1.82 2.44-3.05 3.14-1.97 1.12-4.28 1.65-6.29 2.73-2.51 1.36-4.61 3.18-4.85 6.4-.15 2.02-1.42 2.15-3 1.52-3.18-1.27-5.08-4.96-4.54-8.45.14-.91-.14-1.96-.45-2.86-.66-1.95-1.26-3.98-2.28-5.75-.65-1.14-1.86-2.29-3.07-2.68-1.56-.51-3.4-.09-5.04-.44-.83-.18-1.48-1.18-2.22-1.81.66-.71 1.21-1.63 2.02-2.07.78-.42 1.82-.36 3.01-.54l.01-.02zM216.31 116.768c2.73 4.8 5.26 8.9 7.41 13.18 1.05 2.09 1.01 4.45-.63 6.53-.53.67-.58 1.72-1.09 2.41-.86 1.17-1.77 2.84-2.93 3.1-1.24.27-2.99-.57-4.16-1.41-1.84-1.31-3.2-3.33-5.11-4.47-1.04-.62-2.87-.29-4.22.07-1.91.5-3.66 1.59-5.57 2.11-1.55.42-2.64 0-2.51-2.17.1-1.62-.4-3.32-.87-4.92-.9-3.03-.29-4.38 2.47-5.82 1.36-.71 2.64-1.72 3.7-2.83 2.52-2.65 5.71-3.83 8.74-5.07 1 2.07 1.77 3.66 2.54 5.25l1.22-.3c.3-1.68.59-3.35 1-5.65l.01-.01zM33.38 28.188c4.65-2.73 9.15-3.35 13.89-2.97 1.08.09 2.18.07 3.26 0 .46-.03 1.25-.28 1.3-.54.85-4.43 4.68-3.16 7.35-3.67 4.18-.81 8.46-1.08 13.01-1.61-4.35 8.12-29.03 13.73-38.81 8.81v-.02z" fill="#E3FAFC"/><path d="M71.28 43.198c.47.88.78 1.46 1.54 2.87-3.47-.46-6.4-.85-9.48-1.26.14-.35.18-.77.35-.83 1.84-.63 3.67-1.8 3.02-3.74-.52-1.54-2.24-3-3.79-3.77-1.41-.7-3.32-.33-4.98-.63-.66-.12-1.22-.76-1.82-1.16.48-.57.85-1.37 1.46-1.65 2.51-1.19 6.07-.38 8.2 1.64.5.47 1.19.72 1.72 1.15 1.42 1.15 2.8 2.34 4.2 3.52l-.53.8c1.27.09 2.54.19 3.88.28.68 3.31-1.48 3.07-3.79 2.77l.02.01zM184.18 103.228c3.07 2.89 5.79 6.42 9.34 8.52 3.46 2.05 7.79 2.63 12.06 3.96-8.53 3.61-19.98-4.52-21.41-12.48h.01zM46.41 37.578c-3.55.45-7.22 1.67-10.47-1.63-.75-.77-2.42-.64-3.67-.93-.19-2.91.67-3.45 3.37-2.66 1.91.57 3.98.6 5.97.93.53.09 1.15.26 1.5.62 1.1 1.11 2.1 2.32 3.29 3.67h.01zM208.5 79.158c2.31-3.07 5.22-5.9 6.79-9.33 1.55-3.39 1.73-7.4 2.74-11.09 1.09 10.88-1.55 20.44-9.52 20.42h-.01zM209.02 108.308c2.27.45 3.81.56 5.18 1.09 1.65.63 3.4 1.36 4.67 2.52 1.59 1.45 2.75 3.38 4.09 5.11-.23.2-.46.39-.69.59-.69-.63-1.29-1.44-2.1-1.84-.82-.41-1.84-.54-2.78-.56-1.76-.03-4.11 1.36-3.99-2.26.02-.52-1.65-1.13-2.57-1.66-1.48-.86-2.83-1.72-1.82-3l.01.01zM136.96 23.408c-1.29 3.44-5.15 6.29-7.43 5.59-1.21-.37-2.55-1.88-2.91-3.15-.55-1.92 1.36-1.72 2.59-1.83 2.45-.22 4.91-.39 7.75-.61z" fill="#E3FAFC"/><path d="M199.18 101.338c1.5 2.15.89 7.5-1.01 8.81-1.83 1.26-3.72-.18-4.67-3.41 1.95-1.86 3.82-3.63 5.68-5.4zM153.37 35.878c2.46-5.49 7.14-8.19 12.89-7.34-1.51.94-2.34 1.61-3.28 2.01-1.37.58-2.92.78-4.22 1.47-2.2 1.16-2.35 2.78-.65 4.69-.1.28-.21.56-.31.83l-4.42-1.66h-.01zM147.9 23.078c5.23-.45 10.59-.9 16.69-1.42-3.71 3.6-14.39 3.97-16.69 1.42zM238.35 138.198c1.21 1.4 2.32 2.68 3.67 4.24-2.47 2.74-5.02 5.57-7.58 8.4-.41-.34-.81-.68-1.22-1.03 1.37-1.6 3.16-3 3.98-4.84.85-1.92.77-4.26 1.14-6.78l.01.01zM152.75 115.918c-.16 4.35-.67 7.68-3.29 10.52-2.77-3.44-2.1-5.72 3.29-10.52zM72.21 91.718c-2.84-.16-5.67-.33-8.89-.51.81-3.71-2.59-2.61-4.2-3.72 1.267-.667 5.617.42 13.05 3.26.01.33.02.65.04.98v-.01zM118.46 59.068c-1.2.56-2.69 1.24-4.17 1.93-.17-.18-.35-.35-.52-.53 2.23-2.13 1.9-4.18.27-6.36-.35-.47-.08-1.46.05-2.19.03-.15.89-.39 1.02-.25.49.52.93 1.14 1.21 1.8.67 1.58 1.24 3.2 2.14 5.6zM108.61 43.618c-1.03.71-2 1.85-3.11 2.02-1.29.2-2.71-.46-4.08-.74.21-.83.41-2.37.64-2.38 2.02-.06 4.05.16 6.07.3.16.27.32.54.47.81l.01-.01zM181.75 24.408c1.753-1.354 4.487-1.03 8.2.97-1.96 1.47-3.28 1.33-8.2-.97zM201.96 90.768c1.34 4.08 2.38 7.28 3.61 11.03-3.39-1.56-4.63-5.61-3.61-11.03zM213.87 30.548h7.06l.09.68c-2.34.26-4.67.52-7.01.79l-.15-1.46.01-.01zM203.67 106.938c-.31 1.63-.59 3.11-1.04 5.45-.7-1.1-1.54-1.84-1.59-2.62-.11-1.86.91-2.9 2.63-2.83z" fill="#E3FAFC"/><path d="M31 103h65M171.91 82.48h47.81" stroke="#fff" stroke-width="3" stroke-linecap="round" stroke-linejoin="round"/><path d="M174.8 81h50.44" stroke="#36354C" stroke-width="1.5" stroke-linecap="round" stroke-linejoin="round"/><path d="M33 35.49h20.96" stroke="#fff" stroke-width="3" stroke-linecap="round" stroke-linejoin="round"/><path d="M34.27 34h22.11M160 16h24.09M32 102h48" stroke="#36354C" stroke-width="1.5" stroke-linecap="round" stroke-linejoin="round"/><path d="M118.814 49.79 113.587 23l9.361.395 20.581 24.84" fill="#B9F4F9"/><path d="M118.814 49.79 113.587 23l9.361.395 20.581 24.84" stroke="#36354C" stroke-width="1.5" stroke-linecap="round" stroke-linejoin="round"/><path d="m111.961 69.024-26.473-3.701c-2.145-.07-2.292.929-4.127-.217a12.052 12.052 0 0 1-4.328-4.7L65 37.208l11.715-.627L89.6 50.309s65.947-4.266 70.972-3.887c7.844.078 12.482 3.469 17.894 6.256 4.925 2.532 7.658 5.142 7.488 7.356-.821 4.375-7.836 10.616-22.16 10.848l-30.415-.99" fill="#fff"/><path d="M168.81 64.556c-27.65 1.247-59.458-.185-84.677-2.988-6.133-.682-6.558-3.554-3.05-6.528 2.531-2.152 5.11-3.337 4.83-3.322-.797.031-11.544-15.013-11.544-15.013L65 37.208S78.248 64.44 78.767 64.456c4.166.139 33.69 6.101 62.95 5.69 26.528-.37 28.572 1.44 36.826-2.47 9.857-4.668 6.883-9.6 6.883-9.6s-.325 5.752-16.608 6.488l-.008-.008z" fill="#E7E7F0"/><path d="m111.961 69.024-26.473-3.701c-2.145-.07-2.292.929-4.127-.217a12.052 12.052 0 0 1-4.328-4.7L65 37.208l11.715-.627L89.6 50.309s65.947-4.266 70.972-3.887c7.844.078 12.482 3.469 17.894 6.256 4.925 2.532 7.658 5.142 7.488 7.356-.821 4.375-7.836 10.616-22.16 10.848l-30.415-.99" stroke="#36354C" stroke-width="1.5" stroke-linecap="round" stroke-linejoin="round"/><path d="m146.247 62.637-34.828 38.583-16.252.217 22.431-38.227 28.649-.58v.007zM91.164 58.191l-10.57 13.28-12.31.394 7.734-12.799 15.146-.875z" fill="#B9F4F9" stroke="#36354C" stroke-width="1.5" stroke-linecap="round" stroke-linejoin="round"/><path d="m99.564 58.742 58.452-1.184" stroke="#36354C" stroke-width="1.5" stroke-linecap="round" stroke-linejoin="round"/><path d="M168.764 56.697s5.861-1.409 6.357-5.83l-6.357 5.83z" fill="#fff"/><path d="M168.764 56.697s5.861-1.409 6.357-5.83" stroke="#36354C" stroke-width="1.5" stroke-linecap="round" stroke-linejoin="round"/><path d="m125.403 85.833 4.824 1.618.31-7.31-5.134 5.692z" fill="#fff" stroke="#36354C" stroke-width="1.5" stroke-linecap="round" stroke-linejoin="round"/><path d="M129.213 81.722s-.055.38-.078.659c-.255 2.733.333 4.955 1.44 5.126 1.216.185 2.594-2.184 3.067-5.297.209-1.362.216-2.648.046-3.67-.062-.364-.24-1.58-.24-1.58l-4.235 4.763z" fill="#36354C" stroke="#36354C" stroke-width="1.5" stroke-miterlimit="10"/><path d="M233.22 66.92h-.02a9.99 9.99 0 0 0 1.9-5.87c0-5.55-4.5-10.05-10.05-10.05C219.5 51 215 55.5 215 61.05c0 2.26.75 4.33 2.01 6.01h-.03l8.04 9.86 7.59-9.25c.14-.16.28-.33.41-.5l.21-.25h-.01zm-8.13-9.4a3.53 3.53 0 1 1 .001 7.059 3.53 3.53 0 0 1-.001-7.059zM40.22 89.92h-.02a9.99 9.99 0 0 0 1.9-5.87C42.1 78.5 37.6 74 32.05 74 26.5 74 22 78.5 22 84.05c0 2.26.75 4.33 2.01 6.01h-.03l8.04 9.86 7.59-9.25c.14-.16.28-.33.41-.5l.21-.25h-.01zm-8.13-9.4a3.53 3.53 0 1 1 .001 7.059 3.53 3.53 0 0 1-.001-7.059z" fill="#B9F4F9"/></g><defs><clipPath id="a"><path fill="#fff" d="M0 0h249.59v167.93H0z"/></clipPath></defs></svg>