<svg width="100" height="92" fill="none" xmlns="http://www.w3.org/2000/svg"><defs><linearGradient id="c" x1="19.732" y1="67.007" x2="101.336" y2="20.01" gradientUnits="userSpaceOnUse"><stop stop-color="#414042"/><stop offset="1"/></linearGradient><linearGradient id="d" x1="54.62" y1="67.026" x2="62.194" y2="81.064" gradientUnits="userSpaceOnUse"><stop stop-color="#8C8C8C"/><stop offset="1" stop-color="#fff"/></linearGradient><linearGradient id="e" x1="23.839" y1="54.473" x2="32.619" y2="52.807" gradientUnits="userSpaceOnUse"><stop stop-color="#D1D3D4"/><stop offset="1" stop-color="#F1F2F2"/></linearGradient><linearGradient id="f" x1="32.464" y1="101.499" x2="63.483" y2="-6.116" gradientUnits="userSpaceOnUse"><stop stop-color="#D1D3D4"/><stop offset="1" stop-color="#F1F2F2"/></linearGradient><linearGradient id="g" x1="44.807" y1="49.387" x2="46.144" y2="13.05" gradientUnits="userSpaceOnUse"><stop stop-color="#7ECE5B"/><stop offset="1" stop-color="#CBF693"/></linearGradient><radialGradient id="a" cx="0" cy="0" r="1" gradientUnits="userSpaceOnUse" gradientTransform="matrix(33.05658 -.89144 .156 5.78457 49.034 82.942)"><stop/><stop offset="1" stop-opacity="0"/></radialGradient><clipPath id="b"><path fill="#fff" transform="translate(13 3)" d="M0 0h72.943v82.427H0z"/></clipPath></defs><path opacity=".1" d="M49.75 88.624c18.45-.497 33.337-3.448 33.252-6.59-.084-3.144-15.11-5.288-33.558-4.79-18.45.497-33.337 3.448-33.252 6.59.084 3.144 15.11 5.288 33.559 4.79z" fill="url(#a)"/><g clip-path="url(#b)"><path d="m35.728 85.39 45.338-9.078c3.08-.614 4.859-3.867 3.719-6.792L75.52 45.765 14.987 24.809l-.447 2.327a10.758 10.758 0 0 0 .441 5.647L33.36 84.048a2.082 2.082 0 0 0 2.37 1.343z" fill="url(#c)"/><path d="m37.961 82.8 42.616-9.722a.965.965 0 0 0 .699-1.254l-4.31-12.492-41.255 21.123.364 1.248a1.59 1.59 0 0 0 1.886 1.104V82.8z" fill="url(#d)"/><path d="M36.523 81.451 16.157 25.214l-2.166-2-.913 3.976a3.096 3.096 0 0 0 .113 1.773l20.168 55.09a2.089 2.089 0 0 0 1.952 1.38c-.722-.186-.096-1.833.167-2.758a1.878 1.878 0 0 1 1.045-1.218v-.006z" fill="url(#e)"/><path d="M15.304 21.794a2.4 2.4 0 0 0-1.295 3.05L35.102 80.87c.215.568.866.836 1.415.573l46.8-19.75a4.282 4.282 0 0 0 2.262-5.652L63.698 5.577a4.282 4.282 0 0 0-5.629-2.227L15.304 21.794z" fill="url(#f)"/><path d="m42.783 65.824-5.777-8.183 2.16-.919 3.976 5.694 1.51-8.034 2.202-.937-2.292 11.627-1.773.758-.006-.006zM49.714 62.865l-1.75-9.902 1.994-.854 1.75 9.902-1.994.854zM56.757 60.04c-.77.328-1.498.472-2.179.43-.68-.042-1.247-.269-1.695-.68l1.295-1.946c.305.262.663.412 1.08.46a2.44 2.44 0 0 0 1.242-.192c.394-.167.693-.394.901-.668.21-.28.287-.561.233-.848a.752.752 0 0 0-.441-.59c-.245-.114-.627-.15-1.146-.114l-.878.06c-1.707.119-2.674-.484-2.907-1.803-.16-.913.018-1.767.538-2.56.519-.794 1.265-1.403 2.238-1.815 1.247-.531 2.351-.513 3.318.054l-1.074 1.946c-.567-.364-1.2-.4-1.898-.108-.358.155-.65.358-.883.62-.233.264-.323.532-.269.813.054.286.203.465.46.537.256.071.68.09 1.27.053l.836-.041c1.654-.078 2.603.573 2.842 1.951.155.884-.036 1.737-.573 2.561-.538.824-1.313 1.45-2.322 1.886l.012-.006zM60.398 58.304l2.459-11.698 1.772-.758 5.969 8.1-2.09.889-1.348-1.857-4.166 1.779-.537 2.656-2.06.877v.012zm3.807-9.406-.781 3.784 2.68-1.146-1.898-2.638z" fill="#fff"/><path d="M45.434 42.893c5.812 0 10.523-4.711 10.523-10.523 0-5.811-4.712-10.522-10.523-10.522-5.812 0-10.523 4.71-10.523 10.522s4.711 10.523 10.523 10.523z" fill="url(#g)"/><path d="M45.553 36.8c-.173 0-.346-.036-.507-.114l-3.796-1.784a1.193 1.193 0 1 1 1.015-2.161l2.602 1.224 2.107-5.945a1.193 1.193 0 0 1 2.25.794L46.682 36a1.204 1.204 0 0 1-.663.704c-.15.06-.304.09-.46.09l-.005.006z" fill="#fff"/></g></svg>